<?xml version="1.0" encoding="utf-8"?>
<!-- Generator: Adobe Illustrator 24.3.0, SVG Export Plug-In . SVG Version: 6.00 Build 0)  -->
<svg version="1.1" id="Layer_1" xmlns:v="https://vecta.io/nano"
	 xmlns="http://www.w3.org/2000/svg" xmlns:xlink="http://www.w3.org/1999/xlink" x="0px" y="0px" viewBox="0 0 200 200"
	 style="enable-background:new 0 0 200 200;" xml:space="preserve">
<style type="text/css">
	.st0{fill:#FFFFFF;}
	.st1{fill:#E3E4E8;}
</style>
<path class="st0" d="M65.6-54.5"/>
<path class="st0" d="M0,0v200h200V0H0z M122.9,36.3c1.9,16.9-15.5,29.6-24.7,27.9C97.2,49.6,109.2,37.5,122.9,36.3z M131.4,150
	L131.4,150c-6.4,6.1-13.6,5.2-20.3,2.2c-7.2-3-13.8-3.2-21.4,0c-9.5,4.1-14.5,2.9-20.2-2.3c-32.2-33-27.5-83.3,9.2-85.2
	c8.9,0.5,15.1,4.9,20.3,5.3c7.8-1.6,15.2-6.1,23.6-5.5c10,0.8,17.5,4.7,22.5,11.8c-20.6,12.3-15.7,39.3,3.2,46.9
	C144.3,133,139.5,142.7,131.4,150z"/>
<path class="st1" d="M100,0C44.8,0,0,44.8,0,100C0,155,44.8,200,100,200s100-44.8,100-99.9C200,45,155.2,0,100,0z M122.8,36.3
	c1.9,16.9-15.4,29.6-24.6,27.9C97.2,49.6,109.1,37.5,122.8,36.3z M131.2,150L131.2,150c-6.4,6.1-13.5,5.2-20.2,2.2
	c-7.2-3-13.7-3.2-21.3,0c-9.4,4.1-14.4,2.9-20.1-2.3c-32.1-33-27.3-83.3,9.1-85.2c8.8,0.5,15,4.9,20.2,5.3
	c7.7-1.6,15.2-6.1,23.4-5.5c10,0.8,17.4,4.7,22.4,11.8c-20.5,12.3-15.6,39.3,3.2,46.9C144.1,133,139.3,142.7,131.2,150z"/>
</svg>
