<svg xmlns="http://www.w3.org/2000/svg" viewBox="0 0 48 48"  xmlns:v="https://vecta.io/nano"><path d="M41.3 19.2c1.2 0 2.1.9 2.2 2v18.2c0 3.9-3.1 7.1-7 7.2H11.7c-3.9 0-7.1-3.1-7.2-7V21.3a2.22 2.22 0 0 1 2.2-2.2c1.2 0 2.1.9 2.2 2v18.2c0 1.5 1.2 2.7 2.6 2.8h24.8c1.5 0 2.7-1.2 2.8-2.6V21.3c0-1.1 1-2.1 2.2-2.1zM23.4 1.6h.9c.2.1.5.2.7.4l.2.1 9.9 9.9c.9.9.9 2.3 0 3.1-.8.8-2.1.9-3 .1l-.2-.1-6-6v24.3c0 1.2-.9 2.1-2 2.2h-.2c-1.2 0-2.1-.9-2.2-2V9.1l-6 6c-.8.8-2.1.9-3 .1l-.2-.1c-.8-.8-.9-2.1-.1-3l.1-.2 10-10 .2.1.1-.1c.3-.2.5-.3.8-.3z" fill="#212121"/></svg>