<svg xmlns="http://www.w3.org/2000/svg" viewBox="0 0 200 200"  xmlns:v="https://vecta.io/nano"><path d="M0 0v200h200V0H0zm100 62.4c-14.7 0-26.6-11.9-26.6-26.6S85.3 9.2 100 9.2s26.6 11.9 26.6 26.6-11.9 26.6-26.6 26.6z" fill="#fff"/><path d="M100 0C44.8 0 0 44.8 0 100s44.8 100 100 100 100-44.8 100-100S155.2 0 100 0zm0 62.4c-14.7 0-26.6-11.9-26.6-26.6S85.3 9.2 100 9.2s26.6 11.9 26.6 26.6-11.9 26.6-26.6 26.6z" fill="#e3e4e8"/><path d="M163.1 0H36.9C33.1 0 30 3.1 30 6.9v136c0 3.8 3.1 6.9 6.9 6.9h126.2c3.8 0 6.9-3.1 6.9-6.8V6.9c0-3.8-3.1-6.9-6.9-6.9zM100 62.4c-14.7 0-26.6-11.9-26.6-26.6S85.3 9.2 100 9.2s26.6 11.9 26.6 26.6-11.9 26.6-26.6 26.6z" fill="#fff"/><path d="M67.5 96.1h63.7v6.1H67.5v-6.1zm-5 12.2h73.7v6.1H62.5v-6.1zm14 11.6h45.8v6.1H76.5v-6.1zM63.9 84h71v6.1h-71V84z" fill="#adadad"/><path d="M108.7 25.9l-11.8 12-5.5-5.2-3.8 3.8 9.4 9.1 15.6-15.9-3.9-3.8z" fill="#fff"/></svg>