<svg xmlns="http://www.w3.org/2000/svg" viewBox="-285 408.9 24 24"  fill="#fff" xmlns:v="https://vecta.io/nano"><path d="M-307.5 435.9c-1.7-.4-3.3-.7-2.5-2.2 2.4-4.5.6-6.8-1.9-6.8s-4.2 2.5-1.9 6.8c.8 1.5-.9 1.8-2.5 2.2-1.7.4-1.6 1.3-1.6 3h12c0-1.7.2-2.6-1.6-3zm-15.2-13.9v24h21.6v-24h-21.6zm19.2 19.2h-16.9v-16.8h16.9v16.8zm23.5-26.3h-3v-1h3v1zm8 6c-1.7 0-3 1.3-3 3s1.3 3 3 3 3-1.3 3-3-1.3-3-3-3zm11-5v17h-24v-17h5.9c.7 0 1.3-.3 1.7-.9l1.4-2.1h8l1.4 2.1c.4.6 1 .9 1.7.9h3.9zm-19 4a1 1 0 1 0-2 0 .94.94 0 0 0 1 1c.6 0 1-.5 1-1zm13 4a5 5 0 1 0-10 0 5 5 0 1 0 10 0z"/></svg>