<svg xmlns="http://www.w3.org/2000/svg" viewBox="0 0 200 200"  xmlns:v="https://vecta.io/nano"><path d="M164.6 165.6c-5.6 3.7-12.4 5.9-19.7 5.9-19.7 0-35.7-16-35.7-35.7s16-35.7 35.7-35.7 35.7 16 35.7 35.7c0 7.3-2.2 14-5.9 19.7l20.2 20.2-10.1 10.1-20.2-20.2zm-54 5.5H21.5V30.5h53.2l28.1 21.1h77.3v49.9c-8.9-9.1-21.4-14.8-35.2-14.8-27.2 0-49.2 22.1-49.2 49.2.1 13.8 5.7 26.3 14.9 35.2zm34.3-56.7c11.8 0 21.4 9.6 21.4 21.4s-9.6 21.4-21.4 21.4-21.4-9.6-21.4-21.4 9.6-21.4 21.4-21.4z" fill-rule="evenodd" fill="#fff"/></svg>