<?xml version="1.0" encoding="utf-8"?>
<!-- Generator: Adobe Illustrator 24.3.0, SVG Export Plug-In . SVG Version: 6.00 Build 0)  -->
<svg version="1.1" id="Layer_1" xmlns:v="https://vecta.io/nano"
	 xmlns="http://www.w3.org/2000/svg" xmlns:xlink="http://www.w3.org/1999/xlink" x="0px" y="0px" viewBox="0 0 200 200"
	 style="enable-background:new 0 0 200 200;" xml:space="preserve">
<style type="text/css">
	.st0{fill:#FFFFFF;}
	.st1{fill:#E3E4E8;}
	.st2{fill:#ADADAD;}
</style>
<g>
	<path class="st0" d="M86.8,41.6c-1.9,0-3.5,0.6-4.6,1.9c-1.1,1.2-1.6,2.9-1.6,5.1c0,2.1,0.5,3.8,1.6,5c1.1,1.2,2.6,1.9,4.6,1.9
		c1.9,0,3.4-0.6,4.5-1.9c1.1-1.3,1.7-2.9,1.7-5c0-2.1-0.6-3.8-1.7-5.1C90.2,42.3,88.7,41.6,86.8,41.6z"/>
	<path class="st0" d="M115.8,51.2h-4.3v4.9h4.4c1.9,0,2.8-0.8,2.8-2.4c0-0.8-0.2-1.4-0.7-1.9C117.5,51.4,116.8,51.2,115.8,51.2z"/>
	<path class="st0" d="M0,0v200h200V0H0z M69.4,53.1c0,3-0.8,5.4-2.5,7c-1.6,1.6-3.9,2.4-6.8,2.4c-3.1,0-5.5-0.9-7.3-2.6
		c-1.8-1.7-2.7-4.2-2.7-7.4h7.4c0,2.1,0.8,3.2,2.3,3.2c1.4,0,2.1-0.9,2.1-2.6V35.2h7.5V53.1z M98.8,55.7c-1.2,2.1-2.9,3.8-5,4.9
		c-2.1,1.2-4.4,1.8-7,1.8c-2.5,0-4.9-0.6-7-1.8c-2.1-1.2-3.8-2.8-5-4.9c-1.2-2.1-1.9-4.5-1.9-7.1c0-2.7,0.6-5,1.9-7.1
		c1.2-2.1,2.9-3.7,5-4.9c2.1-1.2,4.4-1.8,7-1.8c2.6,0,4.9,0.6,7,1.8c2.1,1.2,3.8,2.8,5,4.9c1.2,2.1,1.8,4.5,1.8,7.1
		C100.6,51.2,100,53.6,98.8,55.7z M124,60.2c-1.6,1.3-3.8,2-6.7,2H104v-27h13c2.8,0,4.9,0.6,6.5,1.8c1.6,1.2,2.4,3,2.4,5.2
		c0,1.6-0.4,2.9-1.2,4c-0.8,1.1-1.9,1.8-3.3,2.2c1.6,0.4,2.8,1.1,3.8,2.4c0.9,1.2,1.4,2.6,1.4,4.2C126.4,57.1,125.6,58.9,124,60.2z
		 M148.8,58.3c-0.8,1.3-2,2.3-3.5,3c-1.5,0.7-3.3,1.1-5.4,1.1c-3.1,0-5.7-0.7-7.7-2.2c-2-1.5-3.1-3.6-3.3-6.4h8
		c0.1,0.9,0.4,1.6,0.8,2.1c0.5,0.4,1.1,0.7,1.9,0.7c0.7,0,1.3-0.2,1.7-0.5c0.4-0.3,0.7-0.8,0.7-1.4c0-0.8-0.4-1.4-1.1-1.8
		c-0.7-0.4-1.9-0.9-3.6-1.5c-1.8-0.6-3.2-1.2-4.3-1.7c-1.1-0.5-2-1.4-2.8-2.4c-0.8-1.1-1.2-2.4-1.2-4.2c0-1.7,0.4-3.2,1.3-4.5
		c0.9-1.2,2.1-2.2,3.6-2.8c1.5-0.6,3.3-1,5.2-1c3.1,0,5.7,0.7,7.5,2.2c1.9,1.5,2.9,3.5,3,6.2h-8.2c0-0.8-0.3-1.4-0.7-1.8
		c-0.5-0.4-1.1-0.6-1.8-0.6c-0.6,0-1,0.2-1.4,0.5c-0.4,0.3-0.5,0.8-0.5,1.4c0,0.5,0.2,1,0.6,1.3c0.4,0.4,0.9,0.7,1.5,1
		c0.6,0.3,1.5,0.6,2.6,1c1.7,0.6,3.1,1.2,4.2,1.7c1.1,0.6,2.1,1.4,2.9,2.4c0.8,1,1.2,2.3,1.2,3.9C150,55.6,149.6,57,148.8,58.3z"/>
	<path class="st0" d="M118.1,43.5c0-1.6-0.9-2.4-2.8-2.4h-3.8v4.8h3.8C117.2,45.9,118.1,45.1,118.1,43.5z"/>
</g>
<g>
	<path class="st1" d="M115.8,51.2h-4.3v4.9h4.4c1.9,0,2.8-0.8,2.8-2.4c0-0.8-0.2-1.4-0.7-1.9C117.5,51.4,116.8,51.2,115.8,51.2z"/>
	<path class="st1" d="M118.1,43.5c0-1.6-0.9-2.4-2.8-2.4h-3.8v4.8h3.8C117.2,45.9,118.1,45.1,118.1,43.5z"/>
	<path class="st1" d="M86.8,41.6c-1.9,0-3.5,0.6-4.6,1.9c-1.1,1.2-1.6,2.9-1.6,5.1c0,2.1,0.5,3.8,1.6,5c1.1,1.2,2.6,1.9,4.6,1.9
		c1.9,0,3.4-0.6,4.5-1.9c1.1-1.3,1.7-2.9,1.7-5c0-2.1-0.6-3.8-1.7-5.1C90.2,42.3,88.7,41.6,86.8,41.6z"/>
	<path class="st1" d="M138.9,7.9V7.6h-0.7C126.4,2.7,113.5,0,100,0C44.8,0,0,44.8,0,100s44.8,100,100,100s100-44.8,100-100
		C200,58.6,174.8,23,138.9,7.9z M69.4,53.1c0,3-0.8,5.4-2.5,7c-1.6,1.6-3.9,2.4-6.8,2.4c-3.1,0-5.5-0.9-7.3-2.6
		c-1.8-1.7-2.7-4.2-2.7-7.4h7.4c0,2.1,0.8,3.2,2.3,3.2c1.4,0,2.1-0.9,2.1-2.6V35.2h7.5V53.1z M98.8,55.7c-1.2,2.1-2.9,3.8-5,4.9
		c-2.1,1.2-4.4,1.8-7,1.8c-2.5,0-4.9-0.6-7-1.8c-2.1-1.2-3.8-2.8-5-4.9c-1.2-2.1-1.9-4.5-1.9-7.1c0-2.7,0.6-5,1.9-7.1
		c1.2-2.1,2.9-3.7,5-4.9c2.1-1.2,4.4-1.8,7-1.8c2.6,0,4.9,0.6,7,1.8c2.1,1.2,3.8,2.8,5,4.9c1.2,2.1,1.8,4.5,1.8,7.1
		C100.6,51.2,100,53.6,98.8,55.7z M124,60.2c-1.6,1.3-3.8,2-6.7,2H104v-27h13c2.8,0,4.9,0.6,6.5,1.8c1.6,1.2,2.4,3,2.4,5.2
		c0,1.6-0.4,2.9-1.2,4c-0.8,1.1-1.9,1.8-3.3,2.2c1.6,0.4,2.8,1.1,3.8,2.4c0.9,1.2,1.4,2.6,1.4,4.2C126.4,57.1,125.6,58.9,124,60.2z
		 M148.8,58.3c-0.8,1.3-2,2.3-3.5,3c-1.5,0.7-3.3,1.1-5.4,1.1c-3.1,0-5.7-0.7-7.7-2.2c-2-1.5-3.1-3.6-3.3-6.4h8
		c0.1,0.9,0.4,1.6,0.8,2.1c0.5,0.4,1.1,0.7,1.9,0.7c0.7,0,1.3-0.2,1.7-0.5c0.4-0.3,0.7-0.8,0.7-1.4c0-0.8-0.4-1.4-1.1-1.8
		c-0.7-0.4-1.9-0.9-3.6-1.5c-1.8-0.6-3.2-1.2-4.3-1.7c-1.1-0.5-2-1.4-2.8-2.4c-0.8-1.1-1.2-2.4-1.2-4.2c0-1.7,0.4-3.2,1.3-4.5
		c0.9-1.2,2.1-2.2,3.6-2.8c1.5-0.6,3.3-1,5.2-1c3.1,0,5.7,0.7,7.5,2.2c1.9,1.5,2.9,3.5,3,6.2h-8.2c0-0.8-0.3-1.4-0.7-1.8
		c-0.5-0.4-1.1-0.6-1.8-0.6c-0.6,0-1,0.2-1.4,0.5c-0.4,0.3-0.5,0.8-0.5,1.4c0,0.5,0.2,1,0.6,1.3c0.4,0.4,0.9,0.7,1.5,1
		c0.6,0.3,1.5,0.6,2.6,1c1.7,0.6,3.1,1.2,4.2,1.7c1.1,0.6,2.1,1.4,2.9,2.4c0.8,1,1.2,2.3,1.2,3.9C150,55.6,149.6,57,148.8,58.3z"/>
</g>
<g>
	<path class="st0" d="M118.1,43.5c0-1.6-0.9-2.4-2.8-2.4h-3.8v4.8h3.8C117.2,45.9,118.1,45.1,118.1,43.5z"/>
	<path class="st0" d="M115.8,51.2h-4.3v4.9h4.4c1.9,0,2.8-0.8,2.8-2.4c0-0.8-0.2-1.4-0.7-1.9C117.5,51.4,116.8,51.2,115.8,51.2z"/>
	<path class="st0" d="M86.8,41.6c-1.9,0-3.5,0.6-4.6,1.9c-1.1,1.2-1.6,2.9-1.6,5.1c0,2.1,0.5,3.8,1.6,5c1.1,1.2,2.6,1.9,4.6,1.9
		c1.9,0,3.4-0.6,4.5-1.9c1.1-1.3,1.7-2.9,1.7-5c0-2.1-0.6-3.8-1.7-5.1C90.2,42.3,88.7,41.6,86.8,41.6z"/>
	<path class="st0" d="M163.1,10H36.9c-3.8,0-6.9,3.1-6.9,6.9v136c0,3.8,3.1,6.9,6.9,6.9h126.2c3.8,0,6.9-3.1,6.9-6.8V16.9
		C170,13.1,166.9,10,163.1,10z M69.4,53.1c0,3-0.8,5.4-2.5,7c-1.6,1.6-3.9,2.4-6.8,2.4c-3.1,0-5.5-0.9-7.3-2.6
		c-1.8-1.7-2.7-4.2-2.7-7.4h7.4c0,2.1,0.8,3.2,2.3,3.2c1.4,0,2.1-0.9,2.1-2.6V35.2h7.5V53.1z M98.8,55.7c-1.2,2.1-2.9,3.8-5,4.9
		c-2.1,1.2-4.4,1.8-7,1.8c-2.5,0-4.9-0.6-7-1.8c-2.1-1.2-3.8-2.8-5-4.9c-1.2-2.1-1.9-4.5-1.9-7.1c0-2.7,0.6-5,1.9-7.1
		c1.2-2.1,2.9-3.7,5-4.9c2.1-1.2,4.4-1.8,7-1.8c2.6,0,4.9,0.6,7,1.8c2.1,1.2,3.8,2.8,5,4.9c1.2,2.1,1.8,4.5,1.8,7.1
		C100.6,51.2,100,53.6,98.8,55.7z M124,60.2c-1.6,1.3-3.8,2-6.7,2H104v-27h13c2.8,0,4.9,0.6,6.5,1.8c1.6,1.2,2.4,3,2.4,5.2
		c0,1.6-0.4,2.9-1.2,4c-0.8,1.1-1.9,1.8-3.3,2.2c1.6,0.4,2.8,1.1,3.8,2.4c0.9,1.2,1.4,2.6,1.4,4.2C126.4,57.1,125.6,58.9,124,60.2z
		 M148.8,58.3c-0.8,1.3-2,2.3-3.5,3c-1.5,0.7-3.3,1.1-5.4,1.1c-3.1,0-5.7-0.7-7.7-2.2c-2-1.5-3.1-3.6-3.3-6.4h8
		c0.1,0.9,0.4,1.6,0.8,2.1c0.5,0.4,1.1,0.7,1.9,0.7c0.7,0,1.3-0.2,1.7-0.5c0.4-0.3,0.7-0.8,0.7-1.4c0-0.8-0.4-1.4-1.1-1.8
		c-0.7-0.4-1.9-0.9-3.6-1.5c-1.8-0.6-3.2-1.2-4.3-1.7c-1.1-0.5-2-1.4-2.8-2.4c-0.8-1.1-1.2-2.4-1.2-4.2c0-1.7,0.4-3.2,1.3-4.5
		c0.9-1.2,2.1-2.2,3.6-2.8c1.5-0.6,3.3-1,5.2-1c3.1,0,5.7,0.7,7.5,2.2c1.9,1.5,2.9,3.5,3,6.2h-8.2c0-0.8-0.3-1.4-0.7-1.8
		c-0.5-0.4-1.1-0.6-1.8-0.6c-0.6,0-1,0.2-1.4,0.5c-0.4,0.3-0.5,0.8-0.5,1.4c0,0.5,0.2,1,0.6,1.3c0.4,0.4,0.9,0.7,1.5,1
		c0.6,0.3,1.5,0.6,2.6,1c1.7,0.6,3.1,1.2,4.2,1.7c1.1,0.6,2.1,1.4,2.9,2.4c0.8,1,1.2,2.3,1.2,3.9C150,55.6,149.6,57,148.8,58.3z"/>
</g>
<path class="st2" d="M50,96.1h46.6v6.1H50V96.1z M50,84h46.6v6.1H50V84z M50,120.4h46.6v6.1H50V120.4z M50,132h46.6v6.1H50V132z
	 M50,108.3h46.6v6.1H50V108.3z M103.4,96.1H150v6.1h-46.6V96.1z M103.4,84H150v6.1h-46.6V84z M103.4,120.4H150v6.1h-46.6V120.4z
	 M103.4,132H150v6.1h-46.6V132z M103.4,108.3H150v6.1h-46.6V108.3z"/>
</svg>
