<svg xmlns="http://www.w3.org/2000/svg" viewBox="0 0 200 200"  xmlns:v="https://vecta.io/nano"><path d="M0 0v200h200V0H0zm144.6 147.5c-14.7 0-26.7-12-26.7-26.7s12-26.7 26.7-26.7 26.7 12 26.7 26.7-12 26.7-26.7 26.7z" fill="#fff"/><path d="M100 0C44.8 0 0 44.8 0 100s44.8 100 100 100 100-44.8 100-100S155.2 0 100 0zm44.6 147.5c-14.7 0-26.7-12-26.7-26.7s12-26.7 26.7-26.7 26.7 12 26.7 26.7-12 26.7-26.7 26.7z" fill="#e3e4e8"/><path d="M28.7 76.2V64.4c0-6.6 5.3-11.9 11.9-11.9h106.9c6.6 0 11.9 5.3 11.9 11.9v11.9H28.7v-.1zm77.2 44.6c0 10.4 4.1 19.8 10.8 26.7H40.6c-6.6 0-11.9-5.3-11.9-11.9V94.1h88c-6.6 6.9-10.8 16.3-10.8 26.7zm-29.7 3H46.5v5.9h29.7v-5.9zm17.9-11.9H46.5v5.9H94l.1-5.9zm64.4 3.7l-4.2-4.2-12.5 12.9-5.9-5.6-4.1 4.2 10 9.7 16.7-17z" fill="#fff"/></svg>