<?xml version="1.0" encoding="utf-8"?>
<!-- Generator: Adobe Illustrator 24.3.0, SVG Export Plug-In . SVG Version: 6.00 Build 0)  -->
<svg version="1.1" id="Layer_1" xmlns:v="https://vecta.io/nano"
	 xmlns="http://www.w3.org/2000/svg" xmlns:xlink="http://www.w3.org/1999/xlink" x="0px" y="0px" viewBox="0 0 200 200"
	 style="enable-background:new 0 0 200 200;" xml:space="preserve">
<style type="text/css">
	.st0{fill:#FFFFFF;}
	.st1{fill:#E3E4E8;}
	.st2{fill:#ADADAD;}
</style>
<path class="st0" d="M0,0v200h200V0H0z M128.8,72.1l-9.1-8.8l3.7-3.7l5.4,5l11.4-11.7l3.7,3.8L128.8,72.1L128.8,72.1z"/>
<path class="st1" d="M100,0.1C44.8,0.1,0,44.9,0,100S44.8,200,100,200s100-44.8,100-99.9S155.2,0.1,100,0.1z M129.3,72.3l-9.1-8.8
	l3.7-3.7l5.4,5l11.4-11.7l3.7,3.8L129.3,72.3L129.3,72.3z"/>
<path class="st0" d="M162.5,0H36.8c-3.8,0-6.9,3.1-6.9,6.9v135.5c0,3.8,3.1,6.9,6.9,6.9h125.6c3.8,0,6.9-3.1,7-6.9V6.9
	C169.4,3.1,166.3,0,162.5,0z M128.8,72.1l-9.1-8.8l3.7-3.7l5.4,5l11.4-11.7l3.7,3.8L128.8,72.1L128.8,72.1z"/>
<path d="M79.8,46h36.5v4.2H79.8V46z M110.4,64.1H74.6V40.6h46.9v10.8c2.4-1,5-1.6,7.8-1.6V17.2L118.9,6.8H66.8v62.5h42.8
	C109.6,67.5,109.9,65.8,110.4,64.1z M79.8,12h36.5v18.2H79.8V12z M79.8,58.7h33c1-1.5,2.1-2.8,3.5-4v-0.2H79.8V58.7z M102.7,16h8.9
	v10.2h-8.9V16z"/>
<path class="st2" d="M67.2,95.8h63.4v6.1H67.2V95.8z M62.3,107.9h73.4v6.1H62.3C62.3,114,62.3,107.9,62.3,107.9z M76.2,119.5h45.6
	v6.1H76.2V119.5z M63.6,83.7h70.7v6.1H63.6V83.7z"/>
</svg>
