<svg xmlns="http://www.w3.org/2000/svg" viewBox="0 0 18 18"  xmlns:v="https://vecta.io/nano"><path d="M14 0H4C1.8 0 0 1.8 0 4v10c0 2.2 1.8 4 4 4h10c2.2 0 4-1.8 4-4V4c0-2.2-1.8-4-4-4zm.1 6.5v.3c0 3.3-2.5 7-7 7a7.04 7.04 0 0 1-3.8-1.1h.6c1.1 0 2.2-.4 3.1-1-1.1 0-2-.8-2.3-1.7.2 0 .3.1.4.1.3 0 .4 0 .7-.1-1.1-.3-2-1.2-2-2.4.3.2.7.3 1.1.4-.7-.6-1.1-1.3-1.1-2.2 0-.4.1-.9.3-1.2 1.2 1.5 3 2.5 5.1 2.6 0-.2-.1-.3-.1-.6 0-1.4 1.1-2.5 2.5-2.5.7 0 1.4.3 1.8.8.6-.1 1.1-.3 1.5-.6-.2.6-.6 1-1.1 1.4a11.31 11.31 0 0 0 1.5-.4c-.4.4-.8.9-1.2 1.2z" fill-rule="evenodd"/></svg>